# xmcd
#
# Track frame offsets: 
#        150
#        13977
#        27493
#        40918
#        54448
#        67492
#        85619
#        99566
#        114824
#        131322
#        144130
#        158577
#        171783
#        186719
#        210176
#        224248
#
# Disc length: 3159 seconds
#
# Revision: 0
# Processed by: cddbd v1.5.2PL0 Copyright (c) Steve Scherf et al.
# Submitted via: ExactAudioCopyFreeDBPlugin 1.0
#
DISCID=e10c5510
DTITLE=David Ball - Box Set Hits
DYEAR=1900
DGENRE=Country
TTITLE0=Thinking Problem
TTITLE1=Look What Followed Me Home
TTITLE2=When the Thought of You Catches up with Me
TTITLE3=Desert Luau
TTITLE4=Louisiana Melody
TTITLE5=Free Wheeler
TTITLE6=Don't Think Twice
TTITLE7=Honky Tonk Healing
TTITLE8=What Do You Want with His Love
TTITLE9=Please Feed the Jukebox While I'm Gone
TTITLE10=Tulsa
TTITLE11=No More Lonely
TTITLE12=The Bottle What Pours the Wine
TTITLE13=Hanging in Hanging on - Circle of Friends
TTITLE14=I've Got My Baby on My Mind
TTITLE15=Pick Me up on Your Way Down
EXTD=
EXTT0=
EXTT1=
EXTT2=
EXTT3=
EXTT4=
EXTT5=
EXTT6=
EXTT7=
EXTT8=
EXTT9=
EXTT10=
EXTT11=
EXTT12=
EXTT13=
EXTT14=
EXTT15=
PLAYORDER=
